<svg width="181" height="58" viewBox="0 0 181 58" fill="none" xmlns="http://www.w3.org/2000/svg">
<path d="M79.6116 40.6953L84.482 44.64C84.6678 44.7905 84.7757 45.0169 84.7757 45.256V51.6432C84.7757 51.8816 84.883 52.1074 85.068 52.2579L87.7682 54.4559C88.0271 54.6667 88.4147 54.4824 88.4147 54.1486V43.5263C88.4147 43.2875 88.307 43.0614 88.1215 42.9109L79.9639 36.2903C79.7048 36.0801 79.3179 36.2644 79.3179 36.598V40.0794C79.3179 40.3185 79.4258 40.5448 79.6116 40.6953Z" fill="white"/>
<path d="M92.7451 54.4558L95.445 52.2579C95.6299 52.1074 95.7372 51.8816 95.7372 51.6432V45.2559C95.7372 45.0168 95.8451 44.7905 96.031 44.64L100.901 40.6952C101.087 40.5447 101.195 40.3184 101.195 40.0793V36.598C101.195 36.2644 100.808 36.08 100.549 36.2903L92.3918 42.9108C92.2063 43.0613 92.0986 43.2874 92.0986 43.5262V54.1484C92.0986 54.4823 92.4862 54.6666 92.7451 54.4558Z" fill="white"/>
<path d="M109.887 5.05392C109.7 5.20484 109.592 5.43199 109.592 5.67196L109.533 19.1507C109.532 19.3889 109.424 19.614 109.239 19.7637L101.952 25.6519C101.693 25.8613 101.307 25.6768 101.307 25.3436V17.5366C101.307 17.2037 100.921 17.0192 100.662 17.228L97.9497 19.4125C97.7624 19.5634 97.6535 19.7911 97.6535 20.0316V28.7466C97.6535 28.9861 97.5456 29.2127 97.3597 29.3637L90.7587 34.726C90.4663 34.9635 90.0473 34.9632 89.7552 34.7252L83.1526 29.3437C82.9674 29.1927 82.8599 28.9664 82.8599 28.7275V20.0314C82.8599 19.791 82.7511 19.5635 82.564 19.4126L79.8513 17.2245C79.5921 17.0154 79.2062 17.1999 79.2062 17.5329V25.3434C79.2062 25.6766 78.82 25.8611 78.5609 25.6517L71.2611 19.7791C71.0748 19.6292 70.9661 19.4033 70.9653 19.1642L70.921 5.67049C70.921 5.43137 70.8134 5.20494 70.6279 5.05399L67.9289 2.85671C67.67 2.64593 67.2824 2.83016 67.2824 3.16405V20.8773C67.2824 21.117 67.3906 21.344 67.5769 21.4949L89.7554 39.4641C90.0471 39.7005 90.4645 39.7005 90.7562 39.4641L112.936 21.4949C113.122 21.3439 113.23 21.117 113.23 20.8772V3.17926C113.23 2.84596 112.844 2.66156 112.585 2.87116L109.887 5.05392Z" fill="white"/>
<path d="M12.6483 44.6731H6.05279C5.85796 44.6731 5.7 44.5151 5.7 44.3203V40.2133C5.7 40.0185 5.54205 39.8605 5.34721 39.8605H2.41535C2.22051 39.8605 2.06256 40.0185 2.06256 40.2133V52.4738C2.06256 52.6687 2.22051 52.8266 2.41535 52.8266H5.34721C5.54205 52.8266 5.7 52.6687 5.7 52.4738V48.2803C5.7 48.0855 5.85796 47.9275 6.05279 47.9275H12.6483C12.8431 47.9275 13.0011 48.0855 13.0011 48.2803V52.4738C13.0011 52.6687 13.159 52.8266 13.3539 52.8266H16.399C16.5938 52.8266 16.7518 52.6687 16.7518 52.4738V40.2133C16.7518 40.0185 16.5938 39.8605 16.399 39.8605H13.3539C13.159 39.8605 13.0011 40.0185 13.0011 40.2133V44.3203C13.0011 44.5151 12.8431 44.6731 12.6483 44.6731Z" fill="white"/>
<path d="M31.0168 49.6803C31.0168 49.8751 30.8588 50.0331 30.664 50.0331H27.0578C25.3111 49.9059 24.4063 49.1138 24.3427 47.6578H24.3166V40.1271C24.3166 39.9319 24.1581 39.7738 23.9629 39.7743L20.8043 39.7817C20.6099 39.7821 20.4525 39.9398 20.4523 40.1341L20.4441 49.0064C20.4612 51.5532 22.0134 52.8265 25.0996 52.8265H34.5625C34.7574 52.8265 34.9153 52.6686 34.9153 52.4737V40.1438C34.9153 39.949 34.7574 39.791 34.5625 39.791H31.3695C31.1747 39.791 31.0167 39.949 31.0167 40.1438L31.0168 49.6803Z" fill="white"/>
<path d="M48.394 46.1185L39.1506 40.2077C38.9158 40.0575 38.6078 40.2262 38.6078 40.5049V52.4738C38.6078 52.6687 38.7657 52.8266 38.9606 52.8266H41.8853C42.0796 52.8266 42.2373 52.6695 42.2381 52.4752L42.2603 46.8694C42.2614 46.5918 42.5678 46.4241 42.8021 46.5729L52.0586 52.448C52.2935 52.5971 52.6004 52.4283 52.6004 52.1501V40.1778C52.6004 39.9833 52.443 39.8255 52.2485 39.825L49.2904 39.8181C49.0953 39.8176 48.9368 39.9757 48.9368 40.1709V45.8213C48.9368 46.1 48.6288 46.2686 48.394 46.1185Z" fill="white"/>
<path d="M56.3187 40.2084L56.2929 42.253C56.2904 42.4496 56.4491 42.6103 56.6456 42.6103H60.8556C61.0504 42.6103 61.2084 42.7682 61.2084 42.9631V52.4486C61.2084 52.6431 61.3658 52.8009 61.5602 52.8014L64.9081 52.808C65.1032 52.8086 65.2616 52.6506 65.2618 52.4555L65.2698 43.0151C65.2699 42.8204 65.4278 42.6626 65.6225 42.6626H69.8612C70.0569 42.6626 70.2152 42.5033 70.214 42.3076L70.2008 40.1945C70.1996 40.0003 70.0417 39.8436 69.8476 39.8439L56.6711 39.86C56.4781 39.8603 56.3211 40.0155 56.3187 40.2084Z" fill="white"/>
<path d="M162.364 39.9738H159.449C159.254 39.9738 159.096 40.1317 159.096 40.3265V52.587C159.096 52.7819 159.254 52.9398 159.449 52.9398H162.364C162.559 52.9398 162.716 52.7819 162.716 52.587V40.3265C162.716 40.1317 162.559 39.9738 162.364 39.9738Z" fill="white"/>
<path d="M172.865 49.9813C171.553 50.0331 170.559 49.6677 169.88 48.8847C169.201 48.1017 168.862 47.2663 168.862 46.3785C168.862 45.4908 169.203 44.6597 169.884 43.8852C170.566 43.1107 171.58 42.7123 172.926 42.6887H178.34C178.535 42.6887 178.694 42.5295 178.693 42.3339L178.68 40.1589C178.679 39.9649 178.521 39.8082 178.327 39.8082H172.908V39.7997H172.899C170.637 39.8926 168.789 40.5277 167.356 41.7054C165.865 42.9468 165.12 44.4146 165.12 46.1088V46.4218C165.12 48.1626 165.865 49.6501 167.356 50.8861C168.893 52.1568 170.736 52.7946 172.882 52.8005H178.34C178.535 52.8005 178.694 52.6412 178.693 52.4455L178.68 50.332C178.679 50.1379 178.521 49.9813 178.327 49.9813L172.865 49.9813Z" fill="white"/>
<path d="M151.505 49.8114C151.505 50.0063 151.347 50.1642 151.152 50.1642H148.69C147.379 50.216 146.384 49.8507 145.706 49.0676C145.027 48.2846 144.687 47.4492 144.687 46.5615C144.687 45.6738 145.028 44.8426 145.71 44.0682C146.391 43.2937 147.405 42.8952 148.751 42.8717H154.165C154.361 42.8717 154.519 42.7125 154.518 42.5168L154.505 40.3418C154.504 40.1478 154.347 39.9912 154.153 39.9912H148.734V39.9826H148.725C146.462 40.0756 144.615 40.7106 143.182 41.8884C141.691 43.1297 140.945 44.5975 140.945 46.2918V46.6048C140.945 48.3455 141.691 49.8331 143.182 51.0691C144.719 52.3398 146.561 52.9775 148.708 52.9834H155.051C155.246 52.9834 155.404 52.8255 155.404 52.6306V46.9143C155.404 46.7195 155.246 46.5615 155.051 46.5615H151.858C151.663 46.5615 151.505 46.7195 151.505 46.9143L151.505 49.8114Z" fill="white"/>
<path d="M114.635 47.6578H114.609V40.1271C114.609 39.9319 114.45 39.7738 114.255 39.7743L111.096 39.7817C110.902 39.7822 110.744 39.9398 110.744 40.1342L110.736 49.0065C110.753 51.5532 112.305 52.8266 115.392 52.8266H120.956C121.151 52.8266 121.309 52.6686 121.309 52.4738V50.3858C121.309 50.191 121.151 50.033 120.956 50.033H117.35C115.603 49.9059 114.698 49.1139 114.635 47.6578Z" fill="white"/>
<path d="M130.639 42.7163C132.997 42.7163 134.915 44.4586 134.915 46.6002C134.915 48.7418 132.997 50.4841 130.639 50.4841C128.282 50.4841 126.364 48.7418 126.364 46.6002C126.364 44.4586 128.282 42.7163 130.639 42.7163ZM130.639 39.7997C126.505 39.7997 122.737 42.8444 122.737 46.6002C122.737 50.3561 126.505 53.4008 130.639 53.4008C134.774 53.4008 138.542 50.3561 138.542 46.6002C138.542 42.8443 134.774 39.7997 130.639 39.7997Z" fill="white"/>
<path d="M73.6649 35.7015H78.1109C78.5066 35.7015 78.6827 35.2042 78.3752 34.9551L75.0405 32.2549C74.8909 32.1338 74.7043 32.0677 74.5119 32.0677H70.2148C69.8191 32.0677 69.643 32.565 69.9505 32.8141L73.4006 35.6079C73.4754 35.6684 73.5687 35.7015 73.6649 35.7015Z" fill="white"/>
<path d="M105.49 32.2549L102.155 34.955C101.848 35.2041 102.024 35.7014 102.42 35.7014H106.717C106.909 35.7014 107.096 35.6353 107.245 35.5142L110.58 32.8141C110.887 32.565 110.711 32.0677 110.315 32.0677H106.018C105.826 32.0677 105.639 32.1338 105.49 32.2549Z" fill="white"/>
</svg>
